D:\school\WTK\thesis\model\3dpredictsim\Results\Batchsim_tmt_linear_v2\Pog_s1_tmt_bCst_d00_k800_ig24_act_GRF.mot
nRows=10
nColumns=19

name D:\school\WTK\thesis\model\3dpredictsim\Results\Batchsim_tmt_linear_v2\Pog_s1_tmt_bCst_d00_k800_ig24_act_GRF.mot
datacolumns 19
datarows 10
range 0.6837002829 0.8067663338
endheader
time 	ground_force_vx	ground_force_vy	ground_force_vz	ground_force_px	ground_force_py	ground_force_pz	1_ground_force_vx	1_ground_force_vy	1_ground_force_vz	1_ground_force_px	1_ground_force_py	1_ground_force_pz	ground_torque_x	ground_torque_y	ground_torque_z	1_ground_torque_x	1_ground_torque_y	1_ground_torque_z
        0.6837002829	       19.1118112855	      221.2081677713	        8.3228988965	        0.4780513554	        0.0000000000	        0.0435250680	      -89.6275289570	      164.1030187181	       -9.4360238913	        1.0908655009	        0.0000000000	       -0.0512143005	        0.0000000000	        0.0000000000	        0.0000000000	        0.0000000000	        0.0000000000	        0.0000000000	
        0.6973742886	       19.7623617576	      186.3011678112	        7.7097635013	        0.4781788635	        0.0000000000	        0.0436331396	     -101.6286678432	      478.5278534044	        4.7798780840	        1.0935398839	        0.0000000000	       -0.0507430513	        0.0000000000	        0.0000000000	        0.0000000000	        0.0000000000	        0.0000000000	        0.0000000000	
        0.7110482942	       18.0377355412	      137.9199620156	       10.2680934329	        0.4788360437	        0.0000000000	        0.0439662812	     -136.4236996745	      713.2472646726	       14.3970833676	        1.0960866849	        0.0000000000	       -0.0508323727	        0.0000000000	        0.0000000000	        0.0000000000	        0.0000000000	        0.0000000000	        0.0000000000	
        0.7247222999	        7.3503946843	       77.8466157007	       11.3017484321	        0.4791046466	        0.0000000000	        0.0445146263	     -197.6890003361	      893.6578901111	       18.6940465767	        1.1057217854	        0.0000000000	       -0.0530082357	        0.0000000000	        0.0000000000	        0.0000000000	        0.0000000000	        0.0000000000	        0.0000000000	
        0.7383963055	       -8.1181607926	       14.8548484313	        2.8745809254	        0.4755455493	        0.0000000000	        0.0445168092	     -222.4739125398	      972.0373729202	       19.7457505231	        1.1156043407	        0.0000000000	       -0.0553014060	        0.0000000000	        0.0000000000	        0.0000000000	        0.0000000000	        0.0000000000	        0.0000000000	
        0.7520703112	        0.6890569461	       -0.5522427857	        0.0536131737	        0.0000000000	        0.0000000000	        0.0000000000	     -198.7295559063	      919.2295696568	       18.7763794478	        1.1225145747	        0.0000000000	       -0.0567091085	        0.0000000000	        0.0000000000	        0.0000000000	        0.0000000000	        0.0000000000	        0.0000000000	
        0.7657443169	       -8.7229917144	        5.9766858610	       -0.6260807513	        0.0000000000	        0.0000000000	        0.0000000000	     -172.1421995760	      823.9972452581	       15.6201820312	        1.1275517668	        0.0000000000	       -0.0576516409	        0.0000000000	        0.0000000000	        0.0000000000	        0.0000000000	        0.0000000000	        0.0000000000	
        0.7794183225	       -7.1305896645	        4.2733351042	       -0.5565701836	        0.0000000000	        0.0000000000	        0.0000000000	     -148.4073550080	      757.5564332926	       14.3953230616	        1.1314453053	        0.0000000000	       -0.0582486058	        0.0000000000	        0.0000000000	        0.0000000000	        0.0000000000	        0.0000000000	        0.0000000000	
        0.7930923282	       -4.5983825485	        2.5013314934	       -0.3317516439	        0.0000000000	        0.0000000000	        0.0000000000	     -130.3546093416	      715.7023415529	       13.0987804612	        1.1351550983	        0.0000000000	       -0.0586738030	        0.0000000000	        0.0000000000	        0.0000000000	        0.0000000000	        0.0000000000	        0.0000000000	
        0.8067663338	       -3.5259352825	        1.7885587322	       -0.2260128011	        0.0000000000	        0.0000000000	        0.0000000000	     -116.1325647411	      694.9654585310	       13.2599507719	        1.1393652276	        0.0000000000	       -0.0591204107	        0.0000000000	        0.0000000000	        0.0000000000	        0.0000000000	        0.0000000000	        0.0000000000	
